<?xml version="1.0" standalone="no"?>
<!DOCTYPE svg PUBLIC "-//W3C//DTD SVG 20010904//EN"
 "http://www.w3.org/TR/2001/REC-SVG-20010904/DTD/svg10.dtd">
<svg version="1.0" xmlns="http://www.w3.org/2000/svg"
 width="432.000000pt" height="97.000000pt" viewBox="0 0 432.000000 97.000000"
 preserveAspectRatio="xMidYMid meet">
<metadata>
Created by potrace 1.16, written by Peter Selinger 2001-2019
</metadata>
<g transform="translate(0.000000,97.000000) scale(0.100000,-0.100000)"
fill="#000000" stroke="none">
<path d="M90 705 l0 -55 35 0 35 0 0 -250 0 -250 45 0 45 0 0 250 0 250 35 0
35 0 0 55 0 55 -115 0 -115 0 0 -55z"/>
<path d="M360 455 l0 -305 45 0 45 0 0 125 0 125 35 0 35 0 0 -125 0 -125 45
0 45 0 0 305 0 305 -45 0 -45 0 0 -125 0 -125 -35 0 -35 0 0 125 0 125 -45 0
-45 0 0 -305z"/>
<path d="M650 455 l0 -305 105 0 105 0 0 55 0 54 -62 3 -63 3 -3 68 -3 67 56
0 55 0 0 54 0 55 -52 3 -53 3 0 65 0 65 63 3 62 3 0 54 0 55 -105 0 -105 0 0
-305z"/>
<path d="M1050 455 l0 -305 45 0 45 0 1 148 1 147 28 -80 c17 -49 30 -74 34
-65 3 8 17 47 30 85 l25 70 0 -152 1 -153 45 0 45 0 0 305 0 305 -40 0 -40 0
-32 -105 c-18 -58 -35 -105 -38 -105 -4 0 -21 47 -39 105 l-32 105 -39 0 -40
0 0 -305z"/>
<path d="M1485 748 c-2 -7 -26 -145 -53 -305 l-49 -293 47 0 47 0 23 155 c13
85 27 155 30 155 3 0 17 -69 31 -152 l24 -153 48 -3 c43 -3 48 -1 44 15 -3 10
-27 147 -53 306 l-47 287 -44 0 c-26 0 -45 -5 -48 -12z"/>
<path d="M1710 456 l0 -306 45 0 45 0 1 128 1 127 42 -125 43 -125 36 -3 37
-3 0 305 0 306 -45 0 -45 0 -1 -142 0 -143 -42 140 -42 140 -38 3 -37 3 0
-305z"/>
<path d="M2000 455 l0 -305 104 0 c116 0 131 7 141 63 3 18 5 138 3 268 -4
295 4 279 -145 279 l-103 0 0 -305z m160 0 l0 -195 -35 0 -35 0 0 195 0 195
35 0 35 0 0 -195z"/>
<path d="M2380 755 c0 -3 -22 -137 -50 -298 -27 -161 -50 -295 -50 -299 0 -5
20 -8 44 -8 40 0 45 3 50 27 8 38 46 276 46 287 0 5 2 7 4 5 4 -4 56 -295 56
-313 0 -3 20 -6 45 -6 25 0 45 5 45 11 0 12 -88 544 -95 577 -5 19 -12 22 -50
22 -25 0 -45 -2 -45 -5z"/>
<path d="M2610 455 l0 -305 100 0 100 0 0 55 0 54 -57 3 -58 3 -3 248 -2 247
-40 0 -40 0 0 -305z"/>
<path d="M2884 752 c-30 -20 -34 -55 -34 -297 0 -242 4 -277 34 -297 6 -4 48
-8 94 -8 128 0 122 -15 122 305 0 320 6 305 -122 305 -46 0 -88 -4 -94 -8z
m126 -297 l0 -195 -35 0 -35 0 0 195 0 195 35 0 35 0 0 -195z"/>
<path d="M3140 455 l0 -305 45 0 45 0 0 250 0 250 35 0 35 0 0 -70 c0 -68 -1
-70 -25 -70 -24 0 -25 -3 -25 -61 0 -37 12 -109 32 -180 l31 -119 44 0 c23 0
43 3 43 8 0 4 -14 57 -30 117 -34 126 -35 135 -15 135 29 0 37 39 33 182 -4
173 0 168 -145 168 l-103 0 0 -305z"/>
<path d="M3430 455 l0 -305 45 0 45 0 0 305 0 305 -45 0 -45 0 0 -305z"/>
<path d="M3606 473 c-26 -159 -50 -296 -53 -306 -4 -16 1 -18 44 -15 l48 3 26
160 c14 92 28 152 32 140 3 -11 16 -84 28 -162 l23 -143 46 0 47 0 -51 305
-51 305 -45 0 -46 0 -48 -287z"/>
<path d="M3880 456 l0 -306 45 0 45 0 1 128 1 127 41 -128 40 -127 39 0 38 0
0 305 0 305 -45 0 -44 0 -3 -142 -3 -143 -41 140 -41 140 -36 3 -37 3 0 -305z"/>
</g>
</svg>
